<svg xmlns="http://www.w3.org/2000/svg" width="2084" height="2084" viewBox="0 0 2084 2084" version="1.1"><path d="M 1117 717.972 C 1107.113 720.590, 1093.071 727.758, 1085.026 734.293 C 1071.988 744.885, 1060.224 761.596, 1055.315 776.500 C 1053.179 782.985, 1052.665 786.489, 1052.602 795 C 1052.560 800.775, 1053.116 807.818, 1053.839 810.652 C 1054.965 815.067, 1054.938 816.219, 1053.655 818.701 C 1049.292 827.137, 1047.801 834.465, 1046.903 851.881 C 1045.796 873.335, 1044.792 875.854, 1035.500 880.500 C 1029.650 883.425, 1029.138 883.499, 1015 883.471 C 1007.025 883.455, 994.875 883.243, 988 883 C 976.900 882.607, 974.990 882.790, 970.949 884.635 C 961.921 888.754, 955.243 896.740, 953.081 906 C 952.503 908.475, 951.612 921.869, 951.099 935.764 C 949.881 968.820, 949.766 969.033, 930.601 973.841 C 924.706 975.320, 920.021 976.973, 920.191 977.515 C 920.644 978.958, 936.545 978.177, 942.827 976.403 C 949.483 974.524, 956.031 968.705, 958.778 962.227 C 959.881 959.627, 962.170 949.175, 963.866 939 C 967.695 916.024, 969.220 910.821, 973.489 906.166 C 976.583 902.791, 977.273 902.507, 982.175 902.586 C 985.104 902.634, 992.447 904.109, 998.492 905.865 C 1013.254 910.152, 1021.571 911.321, 1033.530 910.792 C 1045.549 910.260, 1052.250 907.652, 1059.836 900.557 C 1068.756 892.213, 1073.709 880.394, 1077.495 858.420 C 1078.829 850.675, 1080.377 843.138, 1080.936 841.670 L 1081.950 839 1093.225 838.985 C 1106.394 838.968, 1114.169 837.368, 1124.672 832.516 C 1150.628 820.524, 1171.400 793.635, 1175.092 767.250 C 1178.077 745.913, 1169.179 728.126, 1151.344 719.780 C 1145.520 717.055, 1143.386 716.614, 1134.585 716.322 C 1126.876 716.066, 1122.733 716.454, 1117 717.972 M 926.512 794.614 C 905.802 799.621, 887.244 817.247, 880.076 838.718 C 877.778 845.601, 877.338 856.076, 879.082 862.358 C 879.989 865.625, 879.827 866.974, 878.023 871.169 C 876.505 874.697, 875.497 880.440, 874.521 891.122 C 872.982 907.967, 872.244 909.814, 865.738 913.134 C 861.722 915.182, 860.592 915.263, 843.708 914.708 C 824.147 914.064, 819.615 914.768, 813.557 919.389 C 807.061 924.343, 805.798 928.887, 804.840 950.745 C 803.701 976.727, 803.296 977.535, 789.727 980.870 C 781.072 982.998, 779.700 984.880, 787.214 984.318 C 807.026 982.838, 809.562 980.258, 813.549 957.533 C 814.806 950.365, 816.155 943.150, 816.546 941.500 C 817.667 936.773, 821.029 931.323, 823.707 929.889 C 826.318 928.492, 825.097 928.310, 851.500 934.017 C 867.263 937.424, 877.148 935.113, 885.270 926.123 C 891.685 919.023, 894.468 911.561, 897.067 894.500 C 898.855 882.760, 898.620 883, 908.325 883 C 924.597 883, 936.684 877.439, 950.567 863.563 C 959.851 854.284, 964.140 846.642, 966.599 835 C 971.108 813.653, 962.536 798.009, 944.201 794.123 C 937.510 792.705, 934.007 792.802, 926.512 794.614 M 1120.289 895.464 C 1101.670 899.645, 1082.816 916.103, 1074.786 935.184 C 1072.837 939.814, 1072.536 942.371, 1072.454 955 C 1072.381 966.207, 1071.954 970.635, 1070.573 974.500 C 1069.590 977.250, 1068.356 984.900, 1067.829 991.500 C 1066.361 1009.929, 1066.428 1009.689, 1061.926 1012.667 C 1056.772 1016.078, 1047.498 1017.013, 1031.758 1015.709 C 1017.858 1014.557, 1013.107 1015.505, 1007.130 1020.621 C 999.826 1026.873, 998.808 1030.499, 998.048 1052.994 C 997.203 1077.993, 996.701 1078.947, 982.750 1082.042 C 974.190 1083.942, 975.514 1085.411, 985.120 1084.670 C 1000.488 1083.485, 1003.312 1079.724, 1008.493 1053.539 C 1010.448 1043.660, 1012.717 1034.555, 1013.536 1033.305 C 1016.372 1028.976, 1020.433 1029.101, 1038 1034.058 C 1048.532 1037.029, 1062.771 1037.129, 1069.156 1034.276 C 1075.034 1031.649, 1081.220 1025.321, 1084.420 1018.660 C 1085.783 1015.822, 1088.047 1007.875, 1089.451 1001 C 1090.856 994.125, 1092.237 987.487, 1092.521 986.250 C 1093.005 984.142, 1093.558 983.999, 1101.269 983.988 C 1125.109 983.954, 1145.780 969.790, 1157.009 945.795 C 1161.273 936.683, 1162.576 928.431, 1161.076 920.038 C 1158.974 908.275, 1152.623 899.895, 1143.325 896.615 C 1136.997 894.382, 1127.269 893.896, 1120.289 895.464" stroke="none" fill="#f8b4d4" fill-rule="evenodd"/><path d="" stroke="none" fill="#f4b4d4" fill-rule="evenodd"/></svg>