<svg xmlns="http://www.w3.org/2000/svg" width="512" height="512" viewBox="0 0 512 512" version="1.1"><path d="" stroke="none" fill="#080404" fill-rule="evenodd"/><path d="M 137.352 32.955 C 118.052 35.176, 101.651 40.087, 84.701 48.721 C 38.937 72.030, 7.854 116.547, 0.953 168.663 C -0.587 180.293, 0.204 208.301, 2.418 220.500 C 8.507 254.063, 24.183 288.065, 48.894 321.308 C 58.457 334.173, 71.313 349.053, 74.757 351.245 C 81.392 355.465, 90 350.990, 90 343.321 C 90 338.788, 89.249 337.594, 78.472 325 C 40.147 280.210, 20.880 234.874, 20.888 189.500 C 20.891 166.975, 24.823 148.594, 33.611 130.012 C 49.115 97.232, 77.797 71.173, 110.500 60.155 C 126.271 54.842, 134.778 53.516, 153 53.529 C 177.022 53.546, 192.680 57.428, 213.715 68.583 C 225.898 75.043, 229.651 75.503, 234.077 71.077 C 236.382 68.772, 237 67.264, 237 63.945 C 237 58.263, 233.340 54.921, 219.807 48.245 C 199.427 38.191, 179.184 33.070, 157.500 32.484 C 150.350 32.290, 141.283 32.502, 137.352 32.955 M 341.165 33.177 C 308.782 37.236, 271.966 55.200, 257.500 74 C 243.817 91.782, 241.552 110.781, 250.893 129.427 C 253.117 133.867, 258.145 142, 262.065 147.500 C 274.340 164.719, 278 174.070, 278 188.210 C 278 192.495, 277.797 196, 277.549 196 C 277.301 196, 274.624 195.356, 271.602 194.568 C 260.879 191.776, 249.478 195.301, 241.820 203.778 L 238.306 207.667 235.913 205.728 C 232.120 202.657, 224.741 199.221, 220.445 198.524 C 211.336 197.048, 212.232 198.904, 212.355 181.762 C 212.476 164.774, 211.387 159.362, 205.661 148.506 C 201.805 141.194, 191.513 130.681, 183.761 126.135 C 180.605 124.284, 174.080 121.402, 169.261 119.730 C 157.155 115.530, 139.494 114.721, 127.290 117.807 C 92.183 126.685, 70.003 157.795, 73.098 193.816 C 74.372 208.640, 79.977 221.406, 91.330 235.344 C 97.020 242.330, 97.695 244.731, 98.406 260.500 C 100.036 296.685, 112.477 325.597, 136.941 350.058 C 163.309 376.421, 195.998 390.144, 233 390.384 C 249.171 390.489, 257.922 389.236, 271.790 384.831 C 291.195 378.668, 303.524 371.488, 314.279 360.087 C 327.197 346.394, 333.936 331.326, 336.525 310.350 L 337.160 305.200 342.960 305.200 C 353.357 305.200, 363.577 298.614, 368.773 288.563 C 370.945 284.363, 371.397 282.136, 371.422 275.500 C 371.448 268.630, 370.771 265.381, 366.630 252.500 C 360.791 234.339, 357.472 227.834, 350.418 220.723 C 338.209 208.416, 319.426 203.149, 302.969 207.418 C 299.963 208.198, 297.441 208.760, 297.366 208.668 C 297.292 208.576, 297.664 205.575, 298.194 202 C 299.427 193.682, 298.521 176.238, 296.453 168.500 C 293.949 159.129, 288.916 149.592, 279.123 135.660 C 268.411 120.422, 266.500 116.008, 266.500 106.500 C 266.500 100.746, 267.020 98.473, 269.422 93.734 C 272.406 87.843, 279.662 79.942, 286.092 75.579 C 298.733 67.004, 318.142 58.826, 334 55.394 C 345.875 52.823, 372.123 52.780, 384 55.312 C 425.972 64.257, 460.042 91.221, 478.389 130.012 C 491.828 158.427, 494.800 191.625, 486.983 226 C 471.502 294.076, 409.608 364.854, 311.444 426.733 C 300.452 433.661, 271.283 450.310, 261.250 455.380 L 256 458.034 250.750 455.381 C 222.538 441.128, 184.089 417.177, 157.160 397.083 C 142.692 386.287, 141.264 385.540, 136.714 386.394 C 130.264 387.604, 126.696 395.170, 129.861 400.928 C 132.479 405.690, 162.275 427.347, 190.183 444.771 C 214.968 460.246, 251.875 480, 256 480 C 259.898 480, 297.326 460.111, 319.440 446.288 C 345.679 429.887, 373.782 409.693, 396.500 390.914 C 410.497 379.344, 444.888 344.655, 455.402 331.500 C 487.049 291.906, 505.455 251.876, 510.956 210.678 C 512.418 199.721, 512.225 176.202, 510.584 165.500 C 505.870 134.759, 493.086 107.187, 472.796 84 C 440.066 46.598, 389.587 27.108, 341.165 33.177 M 352.700 82.573 C 345.946 89.327, 350.142 100, 359.552 100 C 366.495 100, 371.498 93.070, 369.103 86.770 C 366.442 79.772, 357.730 77.543, 352.700 82.573 M 387.784 87.738 C 384.313 89.890, 382.598 94.044, 383.405 98.346 C 384.199 102.576, 385.663 103.861, 395 108.521 C 411.970 116.990, 424.790 129.057, 433.752 145 C 440.091 156.278, 445 173.292, 445 183.990 C 445 193.889, 450.171 199.941, 457.462 198.573 C 465.017 197.156, 467.170 190.379, 465.072 174.615 C 460.093 137.202, 436.572 104.685, 403.403 89.360 C 395.300 85.616, 391.792 85.252, 387.784 87.738 M 137.978 136.986 C 114.491 139.970, 96.953 157.618, 94.033 181.206 C 92.177 196.191, 95.862 207.887, 106.592 221.076 C 109.535 224.693, 113.385 230.735, 115.148 234.503 C 118.158 240.936, 118.401 242.305, 119.127 256.927 C 120.283 280.222, 123.209 291.917, 132.192 309.148 C 154.253 351.467, 203.625 376.134, 250.916 368.465 C 277.960 364.079, 298.909 351.258, 308.156 333.435 C 314.220 321.746, 315.433 316.855, 315.452 304 C 315.468 293.254, 315.191 291.611, 311.234 278.939 C 306.506 263.797, 306.288 262.015, 308.665 257.990 C 311.686 252.876, 317.289 251.660, 322.682 254.948 C 325.451 256.636, 326.336 258.354, 329.509 268.194 C 331.514 274.412, 334.076 280.489, 335.203 281.698 C 338.044 284.747, 342.196 285.467, 345.897 283.553 C 349.429 281.727, 351 279.229, 351 275.438 C 351 271.389, 343.386 247.480, 340.279 241.771 C 335.193 232.427, 325.745 227, 314.563 227 C 298.332 227, 285.714 239.686, 285.719 256 C 285.721 261.064, 286.874 266.130, 290.937 278.936 C 296.830 297.506, 296.917 300.209, 291.765 304.544 C 289.118 306.771, 287.932 307.120, 284.550 306.667 C 278.800 305.895, 276.634 302.811, 272.466 289.459 L 268.879 277.968 263.189 282.872 C 253.648 291.097, 243.032 295.383, 229.500 296.475 C 225.650 296.785, 212.524 296.693, 200.331 296.270 C 178.790 295.522, 178.088 295.432, 175.596 293.090 C 170.756 288.543, 171.280 280.823, 176.669 277.302 C 179.161 275.674, 182.140 275.500, 207.464 275.500 L 235.500 275.500 241.438 272.589 C 250.510 268.140, 254.554 263.312, 263.732 245.970 C 273.121 228.228, 274.450 224.931, 273.592 221.510 C 272.173 215.857, 265.321 212.749, 260.160 215.417 C 257.815 216.630, 255.384 220.423, 248.837 233.080 C 244.252 241.945, 239.169 250.511, 237.542 252.116 C 232.987 256.611, 229.128 257.169, 207.719 256.430 C 185.461 255.662, 181.972 254.705, 177.151 248.049 C 173.512 243.027, 172.477 237.657, 174.032 231.881 C 174.928 228.552, 177.164 225.531, 183.587 218.967 L 191.972 210.398 191.712 188.449 C 191.456 166.821, 191.412 166.418, 188.719 160.888 C 180.791 144.613, 158.946 134.322, 137.978 136.986 M 208.660 222.317 C 207.214 224.784, 204.002 228.588, 201.522 230.771 L 197.013 234.740 200.757 235.359 C 202.815 235.700, 208.878 235.983, 214.230 235.989 L 223.959 236 225.851 232.250 C 227.287 229.404, 227.501 227.968, 226.738 226.294 C 225.372 223.294, 219.286 219.282, 214.894 218.485 C 211.439 217.859, 211.179 218.019, 208.660 222.317 M 105.383 363.583 C 101.870 365.317, 100 368.638, 100 373.147 C 100 377.113, 105.646 383, 109.450 383 C 120.091 383, 124.529 369.342, 115.647 363.926 C 111.864 361.620, 109.521 361.542, 105.383 363.583" stroke="none" fill="#040404" fill-rule="evenodd"/></svg>