<svg xmlns="http://www.w3.org/2000/svg" width="512" height="512" viewBox="0 0 512 512" version="1.1"><path d="" stroke="none" fill="#080404" fill-rule="evenodd"/><path d="M 409.455 2.455 C 407.752 4.157, 407 6.019, 407 8.532 C 407 11.785, 408.069 13.248, 417.452 22.828 L 427.904 33.500 402.452 59.044 C 379.976 81.602, 377 84.957, 377 87.738 C 377 93.163, 381.149 96.487, 387.455 96.115 C 388.584 96.049, 400.094 85.346, 414.711 70.770 L 440.012 45.541 453 58.500 L 465.989 71.460 441.063 96.480 C 425.458 112.144, 415.892 122.501, 415.479 124.176 C 414.053 129.968, 419.888 135.986, 425.569 134.585 C 427.572 134.091, 436.426 125.966, 453.523 108.933 L 478.546 84.005 487.523 93.074 C 500.265 105.947, 503.751 107.403, 509.077 102.077 C 511.125 100.029, 512 98.167, 512 95.860 C 512 92.849, 508.024 88.587, 465.748 46.283 C 420.997 1.502, 419.373 0, 415.702 0 C 413.008 0, 411.198 0.711, 409.455 2.455 M 308.357 52.992 C 305.366 54.198, 303 57.904, 303 61.381 C 303 63.768, 304.959 66.297, 313.477 74.908 L 323.954 85.500 204.477 205.018 C 86.705 322.831, 85 324.592, 85 328.435 C 85 332.097, 85.803 333.145, 98.221 345.686 L 111.442 359.037 93.769 376.769 C 84.049 386.521, 75.636 395.738, 75.073 397.250 C 73.645 401.087, 75.149 404.516, 80.780 410.261 L 85.447 415.022 42.723 457.788 C 3.863 496.687, -0 500.850, -0 503.823 C -0 508.444, 3.774 512, 8.677 512 C 12.308 512, 13.997 510.452, 54.973 469.540 L 97.500 427.079 102.676 432.040 C 107.008 436.192, 108.465 437, 111.616 437 C 115.163 437, 116.454 435.932, 133.942 418.531 L 152.505 400.062 166.075 413.531 C 178.183 425.548, 180.014 427, 183.063 427 C 186.267 427, 193.954 419.527, 306.213 307.283 L 425.945 187.566 436.252 197.709 C 441.921 203.287, 447.735 208.146, 449.172 208.507 C 454.712 209.898, 460.187 204.305, 459.219 198.243 C 458.794 195.580, 317.810 54.259, 314.215 52.891 C 311.468 51.847, 311.180 51.852, 308.357 52.992 M 221.022 213.478 L 105.550 328.954 118.775 342.310 C 136.959 360.674, 137.310 357.941, 113.709 381.731 L 95.417 400.169 103.740 408.293 L 112.063 416.417 130.392 398.108 C 154.041 374.485, 151.295 374.832, 169.643 393.143 L 183.013 406.486 298.509 290.990 L 414.004 175.495 375.249 136.749 L 336.494 98.003 221.022 213.478 M 306.456 152.284 C 304.423 154.033, 303.800 155.487, 303.800 158.480 C 303.800 162.005, 304.489 163.063, 310.782 169.196 C 316.647 174.912, 318.302 175.995, 321.132 175.968 C 324.911 175.933, 327.091 174.592, 328.903 171.191 C 331.004 167.249, 329.291 163.609, 322.042 156.611 C 314.326 149.161, 311.121 148.272, 306.456 152.284 M 256.455 200.455 C 252.036 204.873, 253.008 208.190, 261.199 216.637 C 265.158 220.721, 269.401 224.313, 270.627 224.621 C 275.822 225.925, 281 221.689, 281 216.134 C 281 213.133, 279.976 211.621, 273.677 205.323 C 267.203 198.848, 265.924 198, 262.632 198 C 260.013 198, 258.182 198.728, 256.455 200.455 M 208.923 249.923 C 205.684 253.162, 205.290 255.752, 207.422 259.800 C 209.423 263.601, 217.960 271.683, 221.298 272.937 C 227.749 275.358, 234.337 268.697, 231.904 262.213 C 230.678 258.945, 222.559 250.400, 218.800 248.422 C 214.752 246.290, 212.162 246.684, 208.923 249.923 M 160.756 297.977 C 155.310 302.261, 156.820 307.740, 165.791 316.250 C 170.711 320.918, 172.477 321.994, 175.176 321.968 C 178.874 321.933, 181.097 320.583, 182.837 317.316 C 185.082 313.100, 184.152 310.943, 176.831 303.393 C 168.904 295.218, 165.655 294.124, 160.756 297.977" stroke="none" fill="#040404" fill-rule="evenodd"/></svg>