<svg xmlns="http://www.w3.org/2000/svg" width="200" height="200" viewBox="0 0 200 200" version="1.1"><path d="" stroke="none" fill="#080404" fill-rule="evenodd"/><path d="M 75.197 5.528 C 45.239 12.032, 21.403 34.620, 12.798 64.659 C 10.936 71.158, 10.559 74.895, 10.594 86.500 C 10.631 98.842, 10.961 101.563, 13.379 109.473 C 20.205 131.812, 35.123 149.562, 55.499 159.590 C 68.563 166.020, 77.904 168.199, 92.500 168.225 C 107.388 168.251, 116.491 166.063, 130.264 159.149 L 140.028 154.248 143.137 158.173 C 146.108 161.925, 146.164 162.160, 144.387 163.459 C 142.685 164.704, 142.660 164.976, 144.097 166.660 C 162.796 188.565, 169.275 196, 169.662 196 C 170.015 196, 187.755 183.192, 189.860 181.417 C 190.375 180.982, 163.026 149, 162.139 149 C 161.733 149, 160.822 149.563, 160.116 150.250 C 159.081 151.257, 158.166 150.737, 155.416 147.584 L 152 143.667 154.539 140.584 C 159.112 135.029, 165.575 124.617, 168.283 118.442 C 172.783 108.181, 174.377 99.717, 174.393 86 C 174.412 70.555, 172.720 63.334, 165.727 49 C 161.221 39.763, 159.456 37.345, 151.052 28.898 C 138.112 15.889, 125.794 9.033, 109.030 5.506 C 100.285 3.667, 83.719 3.677, 75.197 5.528 M 80.763 18.033 C 61.082 21.347, 42.501 34.435, 32.263 52.194 C 25.680 63.614, 22.273 80.703, 23.937 93.966 C 26.031 110.672, 32.156 123.126, 44.198 135.165 C 57.080 148.044, 73.965 154.965, 92.500 154.965 C 125.269 154.965, 152.790 132.672, 160.058 100.239 C 161.787 92.525, 161.335 77.378, 159.122 68.856 C 155.951 56.651, 150.761 47.444, 141.852 38.222 C 126.237 22.059, 102.818 14.319, 80.763 18.033 M 78.492 24.826 C 76.297 26.454, 73.071 29.129, 71.325 30.769 L 68.149 33.751 68.480 47.396 C 68.764 59.103, 69.124 61.642, 71.011 65.271 C 72.221 67.597, 74.051 71.141, 75.079 73.146 C 81.034 84.773, 93.032 88.301, 101.457 80.904 C 103.334 79.255, 106.786 74.440, 109.128 70.203 C 113.099 63.017, 113.413 61.881, 113.810 53.280 C 114.405 40.394, 113.518 35.665, 109.682 31.267 C 107.164 28.379, 106.917 27.763, 108.500 28.312 C 110.469 28.994, 110.470 28.982, 108.559 27.502 C 107.491 26.676, 106.006 26, 105.259 26 C 104.512 26, 102.510 25.281, 100.810 24.402 C 99.110 23.523, 94.291 22.592, 90.102 22.335 C 82.878 21.890, 82.279 22.019, 78.492 24.826 M 76.667 44.667 C 76.300 45.033, 76 47.482, 76 50.108 C 76 52.734, 75.550 55.160, 75 55.500 C 73.130 56.656, 73.993 60.081, 77.989 67.363 C 83.349 77.128, 85.992 79.500, 91.515 79.500 C 94.965 79.500, 96.502 78.893, 98.923 76.574 C 100.603 74.965, 102.252 72.715, 102.589 71.574 C 102.925 70.433, 104.238 67.925, 105.506 66 C 108.186 61.932, 109.713 56, 108.079 56 C 107.457 56, 107 53.969, 107 51.200 C 107 48.560, 106.460 45.860, 105.800 45.200 C 104.510 43.910, 77.910 43.423, 76.667 44.667 M 72.766 89.034 C 70.713 91.215, 68.125 93, 67.016 93 C 64.654 93, 64.653 93.010, 66.333 99.500 C 67.568 104.271, 67.808 104.525, 71.564 105.055 C 76.708 105.780, 78.924 107.067, 83.224 111.826 C 86.157 115.073, 86.897 116.808, 87.476 121.794 C 88.073 126.934, 87.830 128.586, 85.844 132.916 C 84.046 136.836, 82.995 138, 81.256 138 C 78.212 138, 78.340 135.258, 81.450 133.841 C 83.798 132.771, 86.021 128.482, 85.981 125.101 C 85.971 124.220, 84.647 121.406, 83.039 118.847 C 79.404 113.058, 75.219 111.325, 68.950 113.013 C 63.019 114.611, 60.446 117.582, 59.623 123.786 C 59.117 127.599, 59.344 129.764, 60.478 131.957 C 62.012 134.924, 65.675 137.659, 66.717 136.616 C 67.017 136.316, 68.133 136.536, 69.196 137.105 C 70.737 137.930, 70.888 138.429, 69.942 139.570 C 68.122 141.763, 66.681 141.325, 62.315 137.250 C 59.463 134.587, 57.783 131.840, 56.519 127.772 C 54.760 122.107, 54.765 121.976, 57.004 115.989 C 58.358 112.369, 60.406 109.044, 62.099 107.718 L 64.930 105.500 63.390 100.250 C 62.543 97.362, 61.636 95, 61.375 95 C 58.317 95, 51.243 101.488, 48.610 106.709 C 45.955 111.973, 44.643 124.209, 46.306 128.191 C 48.956 134.532, 64.195 144.182, 76.661 147.412 C 84.629 149.477, 100.362 149.477, 108.356 147.414 C 116.996 145.183, 129.276 138.544, 133.586 133.773 L 137.232 129.737 136.815 121.022 C 136.259 109.379, 132.770 102.020, 125.500 97.152 L 120.500 93.804 120 100.652 C 119.560 106.682, 119.769 107.838, 121.750 110.327 C 125.592 115.153, 124.304 122.208, 119.010 125.335 C 115.440 127.444, 112.560 127.444, 108.990 125.335 C 100.730 120.456, 103.443 107.912, 113.091 106.369 L 117 105.744 117 99.898 C 117 94.452, 116.800 93.948, 114.088 92.546 C 112.486 91.717, 110.029 89.574, 108.626 87.782 C 106.999 85.703, 105.746 84.881, 105.162 85.512 C 104.660 86.055, 102.562 90.325, 100.500 95 C 98.438 99.675, 96.357 103.927, 95.876 104.450 C 94.351 106.104, 94.978 97.614, 96.532 95.559 C 97.339 94.491, 98 93.286, 98 92.880 C 98 90.977, 94.499 89, 91.129 89 C 85.359 89, 83.222 92.378, 86.619 96.131 C 87.820 97.459, 88.059 98.874, 87.544 101.620 L 86.849 105.320 81.981 95.160 C 79.304 89.572, 76.975 85.015, 76.806 85.034 C 76.638 85.053, 74.820 86.853, 72.766 89.034 M 108.356 110.370 C 102.650 115.278, 106.401 125, 114 125 C 115.597 125, 118.120 123.940, 119.644 122.630 C 125.350 117.722, 121.599 108, 114 108 C 112.403 108, 109.880 109.060, 108.356 110.370 M 111.384 114.442 C 110.446 116.885, 111.428 119.459, 113.445 119.847 C 116.088 120.356, 118.227 117.293, 116.926 114.862 C 115.746 112.658, 112.173 112.387, 111.384 114.442" stroke="none" fill="#040404" fill-rule="evenodd"/></svg>