<svg xmlns="http://www.w3.org/2000/svg" width="2481" height="3508" viewBox="0 0 2481 3508" version="1.1"><path d="M 1398.623 805.957 C 1392.243 812.645, 1389.055 818.708, 1389.022 824.212 C 1388.988 829.902, 1392.533 838.138, 1396.814 842.319 C 1402.769 848.133, 1408.727 849.872, 1426.798 851.066 C 1460.130 853.270, 1485.244 857.320, 1513.321 865.018 C 1621.335 894.634, 1699.170 959.392, 1750.812 1062.606 C 1774.048 1109.048, 1783.494 1145.214, 1788.520 1206.977 C 1789.865 1223.501, 1790.330 1226.107, 1792.913 1231.628 C 1795.987 1238.196, 1802.435 1245.455, 1806.605 1247.040 C 1807.994 1247.568, 1811.238 1247.997, 1813.815 1247.994 C 1824.288 1247.982, 1830.704 1244.031, 1835.210 1234.818 C 1839.342 1226.370, 1839.965 1220.555, 1838.888 1200.469 C 1834.918 1126.417, 1815.051 1063.860, 1775.240 1000.061 C 1726.413 921.811, 1659.154 865.188, 1575 831.485 C 1546.052 819.892, 1518.914 812.416, 1478.979 805.033 L 1451.758 800 1428.031 800 L 1404.304 800 1398.623 805.957 M 1410.326 900.044 C 1402.299 901.632, 1395.276 906.668, 1391.736 913.376 C 1388.687 919.153, 1388.692 929.855, 1391.745 935.643 C 1394.593 941.040, 1401.106 946.546, 1406.891 948.448 C 1409.426 949.282, 1418.925 950.448, 1428 951.041 C 1512.530 956.562, 1581.003 992.683, 1632.650 1059 C 1666.068 1101.910, 1683.896 1150.502, 1688.457 1211.106 C 1689.948 1230.927, 1690.850 1234.498, 1696.008 1241.009 C 1700.400 1246.555, 1706.105 1249.005, 1714.566 1248.978 C 1723.168 1248.951, 1728.334 1246.764, 1733.185 1241.097 C 1738.743 1234.604, 1740.405 1227.198, 1739.605 1212.500 C 1737.574 1175.191, 1730.889 1141.883, 1718.931 1109.500 C 1708.786 1082.027, 1688.560 1046.580, 1669.004 1022 C 1658.509 1008.810, 1635.559 985.364, 1622.668 974.662 C 1569.831 930.801, 1507.125 905.368, 1438.605 900.009 C 1423.864 898.856, 1416.290 898.865, 1410.326 900.044 M 1412 1000.011 C 1404.462 1001.312, 1399.156 1004.015, 1395.100 1008.623 C 1386.942 1017.892, 1386.941 1031.642, 1395.099 1040.491 C 1401.149 1047.056, 1406.731 1048.954, 1424.855 1050.610 C 1466.451 1054.413, 1497.206 1066.852, 1527.355 1092.067 C 1562.716 1121.640, 1583.900 1163.184, 1588.046 1211.086 C 1589.452 1227.335, 1590.533 1232.527, 1593.600 1237.760 C 1600.113 1248.874, 1614.918 1252.748, 1627.002 1246.499 C 1631.803 1244.016, 1636.625 1237.398, 1638.503 1230.711 C 1642.472 1216.586, 1636.456 1175.196, 1626.312 1146.840 C 1605.515 1088.702, 1556.403 1038.321, 1497.500 1014.695 C 1468.881 1003.217, 1431.067 996.723, 1412 1000.011 M 897.599 1100.577 C 841.610 1109.282, 802.703 1146.666, 791.286 1202.730 C 789.584 1211.085, 789.500 1236.851, 789.500 1747.500 C 789.500 2259.455, 789.581 2283.904, 791.298 2292.500 C 795.413 2313.095, 801.204 2327.610, 811.434 2342.970 C 818.418 2353.457, 832.670 2367.996, 842.500 2374.662 C 857.286 2384.688, 875.376 2391.748, 894.671 2395.024 C 906.339 2397.004, 910.072 2397.028, 1169 2396.748 L 1431.500 2396.464 1442 2393.830 C 1493.344 2380.948, 1525.172 2348.316, 1537.222 2296.199 L 1539.465 2286.500 1539.757 1752 C 1540.082 1158.380, 1540.621 1206.714, 1533.435 1185.144 C 1520.489 1146.287, 1491.543 1117.528, 1452.967 1105.194 C 1432.482 1098.645, 1448.808 1098.990, 1164.372 1099.097 C 950.092 1099.177, 904.995 1099.428, 897.599 1100.577 M 901.500 1151.484 C 877.420 1155.967, 860.391 1168.351, 850.619 1188.488 C 846.071 1197.860, 843.556 1207.318, 840.513 1226.500 C 839.117 1235.300, 837.720 1243.737, 837.408 1245.250 L 836.841 1248 1162.335 1248 L 1487.829 1248 1488.538 1240.436 C 1489.839 1226.556, 1487.236 1207.660, 1482.259 1194.841 C 1474.837 1175.727, 1460.511 1162.482, 1439.752 1155.542 C 1422.468 1149.764, 1434.808 1150.004, 1160.500 1150.096 C 957.944 1150.164, 907.127 1150.436, 901.500 1151.484 M 1029.199 1176.588 C 1019.486 1181.428, 1013.076 1192.243, 1014.362 1201.622 C 1016.258 1215.455, 1030.963 1226.876, 1043.450 1224.213 C 1055.715 1221.597, 1064.825 1211.178, 1064.956 1199.616 C 1065.036 1192.570, 1062.912 1187.834, 1057.039 1181.961 C 1048.568 1173.490, 1039.087 1171.661, 1029.199 1176.588 M 1106.165 1175.908 C 1098.701 1178.485, 1092.385 1184.874, 1090.336 1191.917 C 1086.486 1205.154, 1092.791 1217.490, 1106.069 1222.699 C 1110.022 1224.250, 1115.887 1224.475, 1160.493 1224.779 C 1212.382 1225.133, 1219.741 1224.719, 1226.898 1221.037 C 1235.314 1216.706, 1239.452 1209.459, 1239.480 1199 C 1239.497 1192.562, 1239.103 1190.824, 1236.695 1186.728 C 1235.152 1184.103, 1232.158 1180.809, 1230.042 1179.409 C 1221.999 1174.087, 1220.903 1173.997, 1164.091 1174.033 C 1115.647 1174.063, 1111.079 1174.211, 1106.165 1175.908 M 841 1748.500 L 841 2196 1164.500 2196 L 1488 2196 1488 1748.500 L 1488 1301 1164.500 1301 L 841 1301 841 1748.500 M 1141.922 1500.552 C 1124.754 1503.661, 1109.330 1509.893, 1095 1519.511 C 1083.131 1527.477, 1074.842 1534.913, 1067.096 1544.541 C 1051.163 1564.347, 1041.776 1587.683, 1038.887 1614.674 C 1037.544 1627.213, 1038.868 1654.234, 1041.592 1669.885 C 1044.627 1687.324, 1053.074 1707.990, 1063.125 1722.568 C 1068.934 1730.993, 1083.138 1745.073, 1091.500 1750.696 C 1124.442 1772.846, 1170.875 1779.639, 1205.312 1767.346 C 1233.425 1757.311, 1261.553 1732.885, 1275.811 1706.124 C 1290.122 1679.265, 1294.362 1641.011, 1287.433 1601.274 C 1283.047 1576.123, 1271.181 1553.267, 1253 1534.950 C 1234.849 1516.663, 1212.452 1504.879, 1187.615 1500.548 C 1176.649 1498.636, 1152.492 1498.638, 1141.922 1500.552 M 1154.093 1550.163 C 1131.636 1553.373, 1108.670 1569.661, 1099.077 1589.181 C 1091.829 1603.928, 1090.695 1610.186, 1090.591 1636 C 1090.508 1656.550, 1090.696 1659.175, 1092.758 1666.291 C 1100.764 1693.913, 1120.396 1713.392, 1147.013 1720.123 C 1158.903 1723.129, 1176.096 1722.485, 1187.500 1718.606 C 1218.704 1707.991, 1237.864 1681.148, 1239.680 1645.500 C 1240.511 1629.189, 1237.350 1606.744, 1232.527 1594.721 C 1222.970 1570.893, 1200.670 1553.703, 1174.617 1550.080 C 1165.833 1548.858, 1163.145 1548.869, 1154.093 1550.163 M 1058 1772.631 C 1056.075 1772.879, 1050.675 1774.018, 1046 1775.163 C 1004.359 1785.354, 970.853 1821.876, 965.082 1863.364 C 963.328 1875.978, 963.679 1926.522, 965.585 1935.792 C 969.622 1955.420, 981.378 1967.432, 1000.517 1971.486 C 1011.236 1973.757, 1321.738 1973.740, 1330.458 1971.469 C 1347.609 1967.002, 1359.448 1954.924, 1363.492 1937.769 C 1365.550 1929.044, 1365.594 1877.516, 1363.555 1863.996 C 1355.110 1807.973, 1310.348 1771.379, 1252.500 1773.205 C 1235.584 1773.739, 1231.100 1775.679, 1221.258 1786.718 C 1202.439 1807.828, 1194.529 1814.386, 1182.304 1819.012 C 1175.084 1821.744, 1162.525 1822.669, 1154.706 1821.044 C 1141.038 1818.203, 1125.777 1807.738, 1112.446 1792.064 C 1104.040 1782.181, 1096.859 1776.674, 1089.426 1774.410 C 1084.497 1772.908, 1064.592 1771.782, 1058 1772.631 M 1056.356 1825.430 C 1054.077 1826.143, 1049.406 1828.431, 1045.976 1830.515 C 1031.518 1839.297, 1023.222 1848.585, 1018.191 1861.621 C 1015.576 1868.394, 1015.533 1868.912, 1015.347 1895.250 L 1015.158 1922 1164.579 1922 L 1314 1922 1314 1898.458 C 1314 1871.957, 1312.883 1863.820, 1307.819 1853.435 C 1298.146 1833.596, 1272.877 1820.139, 1257.422 1826.597 C 1255.215 1827.519, 1248.297 1833.352, 1241.050 1840.401 C 1232.745 1848.479, 1225.628 1854.372, 1220.009 1857.824 C 1189.401 1876.628, 1152.503 1878.729, 1120.266 1863.503 C 1107.255 1857.358, 1098.200 1850.769, 1085.394 1838.127 C 1075.841 1828.697, 1073.542 1826.941, 1068.962 1825.581 C 1062.716 1823.727, 1061.835 1823.716, 1056.356 1825.430 M 840.288 2264.750 C 840.848 2281.981, 842.157 2289.766, 846.217 2300 C 854.564 2321.045, 871.638 2336.434, 894.027 2343.092 L 901.500 2345.314 1043 2346.200 C 1125.340 2346.715, 1235.089 2346.714, 1305.500 2346.197 C 1425.832 2345.313, 1426.541 2345.296, 1433.872 2343.117 C 1460.522 2335.194, 1478.801 2317.102, 1486.222 2291.299 C 1488.062 2284.901, 1488.469 2280.985, 1488.483 2269.500 C 1488.492 2261.800, 1488.142 2253.813, 1487.705 2251.750 L 1486.909 2248 1163.327 2248 L 839.744 2248 840.288 2264.750 M 1081.431 2273.806 C 1072.458 2276.929, 1066.992 2282.694, 1064.956 2291.184 C 1061.820 2304.254, 1068.323 2315.940, 1081.322 2320.598 C 1086.135 2322.322, 1091.266 2322.476, 1154.072 2322.778 C 1228.687 2323.136, 1244.019 2322.542, 1251.032 2319.019 C 1260.819 2314.102, 1264.454 2308.140, 1264.454 2297 C 1264.454 2285.884, 1260.922 2280.073, 1251 2274.863 L 1246.500 2272.500 1166.500 2272.271 C 1092.288 2272.058, 1086.133 2272.169, 1081.431 2273.806" stroke="none" fill="#000000" fill-rule="evenodd"/><path d="" stroke="none" fill="#080404" fill-rule="evenodd"/><path d="" stroke="none" fill="#040404" fill-rule="evenodd"/></svg>