<?xml version="1.0" encoding="UTF-8"?>
<svg version="1.1" xmlns="http://www.w3.org/2000/svg" width="512" height="512">
<path d="M0 0 C0.93290359 -0.00974854 1.86580719 -0.01949707 2.82698059 -0.02954102 C23.57225938 -0.20163406 43.65766596 -0.02590254 64.04296875 4.23828125 C64.94998535 4.42551758 65.85700195 4.61275391 66.79150391 4.80566406 C86.25597116 8.96507596 105.15461561 15.53991254 123.04296875 24.23828125 C124.38512451 24.88990234 124.38512451 24.88990234 125.75439453 25.5546875 C159.2350746 42.00013186 189.96987139 65.76270137 213.04296875 95.23828125 C213.83316406 96.223125 214.62335938 97.20796875 215.4375 98.22265625 C247.45690649 138.47707568 268.83052924 191.36332458 269.28125 243.1953125 C269.29099854 244.12821609 269.30074707 245.06111969 269.31079102 246.02229309 C269.48288406 266.76757188 269.30715254 286.85297846 265.04296875 307.23828125 C264.85573242 308.14529785 264.66849609 309.05231445 264.47558594 309.98681641 C260.31617404 329.45128366 253.74133746 348.34992811 245.04296875 366.23828125 C244.60855469 367.13305176 244.17414063 368.02782227 243.7265625 368.94970703 C227.28111814 402.4303871 203.51854863 433.16518389 174.04296875 456.23828125 C173.058125 457.02847656 172.07328125 457.81867188 171.05859375 458.6328125 C130.80417432 490.65221899 77.91792542 512.02584174 26.0859375 512.4765625 C25.15303391 512.48631104 24.22013031 512.49605957 23.25895691 512.50610352 C2.51367812 512.67819656 -17.57172846 512.50246504 -37.95703125 508.23828125 C-38.86404785 508.05104492 -39.77106445 507.86380859 -40.70556641 507.67089844 C-60.17003366 503.51148654 -79.06867811 496.93664996 -96.95703125 488.23828125 C-97.85180176 487.80386719 -98.74657227 487.36945313 -99.66845703 486.921875 C-133.1491371 470.47643064 -163.88393389 446.71386113 -186.95703125 417.23828125 C-187.74722656 416.2534375 -188.53742188 415.26859375 -189.3515625 414.25390625 C-221.37096899 373.99948682 -242.74459174 321.11323792 -243.1953125 269.28125 C-243.20506104 268.34834641 -243.21480957 267.41544281 -243.22485352 266.45426941 C-243.39694656 245.70899062 -243.22121504 225.62358404 -238.95703125 205.23828125 C-238.76979492 204.33126465 -238.58255859 203.42424805 -238.38964844 202.48974609 C-234.23023654 183.02527884 -227.65539996 164.12663439 -218.95703125 146.23828125 C-218.30541016 144.89612549 -218.30541016 144.89612549 -217.640625 143.52685547 C-201.19518064 110.0461754 -177.43261113 79.31137861 -147.95703125 56.23828125 C-146.9721875 55.44808594 -145.98734375 54.65789063 -144.97265625 53.84375 C-104.71823682 21.82434351 -51.83198792 0.45072076 0 0 Z M-140.57568359 121.18188477 C-178.43101675 163.61760076 -193.54985634 218.31375307 -190.95703125 274.23828125 C-186.80554604 327.86331948 -158.97788637 377.82959085 -118.67089844 412.79736328 C-75.58839389 449.01858007 -20.69315973 464.24353289 34.921875 459.93798828 C88.29979551 454.1376467 138.68355444 426.18734748 172.45654297 384.49316406 C206.80606097 340.70564409 222.36930625 286.13871064 216.359375 230.83203125 C209.3554676 178.10421101 181.47442301 128.34158365 139.51953125 95.4296875 C64.28184165 38.07727988 -40.26242247 37.27711884 -140.57568359 121.18188477 Z " fill="#000000" transform="translate(242.95703125,-0.23828125)"/>
<path d="M0 0 C17.16 0 34.32 0 52 0 C52 50.82 52 101.64 52 154 C34.84 154 17.68 154 0 154 C0 103.18 0 52.36 0 0 Z " fill="#000000" transform="translate(230,230)"/>
<path d="M0 0 C17.16 0 34.32 0 52 0 C52 17.16 52 34.32 52 52 C34.84 52 17.68 52 0 52 C0 34.84 0 17.68 0 0 Z " fill="#000000" transform="translate(230,128)"/>
</svg>
