<svg xmlns="http://www.w3.org/2000/svg" width="840" height="544" viewBox="0 0 840 544" version="1.1"><path d="M 0 272.001 L 0 544.002 420.250 543.751 L 840.500 543.500 840.752 271.750 L 841.004 0 420.502 0 L 0 0 0 272.001 M 0.493 272.500 C 0.493 422.100, 0.609 483.151, 0.750 408.169 C 0.891 333.188, 0.891 210.788, 0.750 136.169 C 0.609 61.551, 0.493 122.900, 0.493 272.500 M 21 40.600 C 21 41.646, 419.128 519, 420 519 C 420.872 519, 819 41.646, 819 40.600 C 819 40.270, 639.450 40, 420 40 C 200.550 40, 21 40.270, 21 40.600" stroke="none" fill="#f3f3f3" fill-rule="evenodd"/><path d="M 21 40.600 C 21 41.646, 419.128 519, 420 519 C 420.872 519, 819 41.646, 819 40.600 C 819 40.270, 639.450 40, 420 40 C 200.550 40, 21 40.270, 21 40.600" stroke="none" fill="#040404" fill-rule="evenodd"/></svg>