<svg xmlns="http://www.w3.org/2000/svg" width="512" height="512" viewBox="0 0 512 512" version="1.1"><path d="" stroke="none" fill="#080404" fill-rule="evenodd"/><path d="M 14.323 89.696 C 13.125 89.929, 11.703 90.656, 11.162 91.310 C 10.445 92.177, 43.555 116.745, 133.055 181.757 L 255.932 271.014 378.406 181.757 C 445.767 132.666, 500.908 92.207, 500.940 91.848 C 501.187 89.145, 488.382 89.004, 255.601 89.136 C 124.095 89.211, 15.520 89.463, 14.323 89.696 M 420 186.080 C 369.675 222.895, 327.667 253.585, 326.649 254.281 C 324.994 255.412, 334.686 262.802, 418.327 324.183 C 486.824 374.452, 512.008 392.422, 512.427 391.329 C 513.291 389.078, 513.115 118.989, 512.250 119.072 C 511.837 119.112, 470.325 149.266, 420 186.080 M 1 256.490 L 1 391.980 18.750 378.959 C 28.512 371.797, 70.115 341.314, 111.200 311.219 C 152.285 281.124, 185.777 256.063, 185.626 255.530 C 185.406 254.746, 2.111 121.007, 1.250 121.002 C 1.113 121.001, 1 181.970, 1 256.490 M 110.774 346.352 C 55.925 386.583, 11.038 419.849, 11.024 420.275 C 11.011 420.701, 12.154 421.488, 13.565 422.025 C 17.079 423.361, 494.921 423.361, 498.435 422.025 C 499.846 421.488, 500.975 420.701, 500.944 420.275 C 500.913 419.849, 455.915 386.546, 400.949 346.270 L 301.012 273.039 282.756 286.352 C 261.235 302.046, 261.313 302, 256 302 C 250.670 302, 250.605 301.963, 230 287.022 C 220.375 280.044, 212.050 274.079, 211.500 273.769 C 210.950 273.458, 165.623 306.120, 110.774 346.352" stroke="none" fill="#040404" fill-rule="evenodd"/></svg>