<svg xmlns="http://www.w3.org/2000/svg" width="1656" height="1547" viewBox="0 0 1656 1547" version="1.1"><path d="" stroke="none" fill="#080404" fill-rule="evenodd"/><path d="M 804 8.609 C 706.788 17.117, 627.855 61.319, 568.500 140.488 C 532.243 188.848, 511.424 241.268, 503.361 304.500 C 500.131 329.829, 502.093 391.848, 507.551 437 C 515.351 501.518, 535.546 570.088, 562.921 625 C 576.273 651.782, 586.564 668.703, 605.762 695.438 C 612.057 704.203, 617.389 711.853, 617.611 712.438 C 617.835 713.024, 611.629 715.916, 603.758 718.894 C 579.266 728.159, 573.451 731.859, 554.131 750.474 C 493.833 808.569, 455.318 901.682, 450.503 1001 C 450.170 1007.875, 449.694 1014.480, 449.447 1015.679 C 449.046 1017.625, 449.611 1017.977, 454.749 1018.980 C 473.605 1022.661, 492.283 1030.278, 506.743 1040.185 C 517.348 1047.451, 535.048 1065.319, 544.202 1078 C 571.770 1116.187, 587.674 1161.021, 593.426 1216.759 C 596.153 1243.195, 595.476 1248.233, 588.471 1253.625 C 583.870 1257.167, 575.786 1264.004, 570.636 1268.709 C 566.463 1272.521, 566.407 1273, 568.593 1286.185 C 569.524 1291.804, 566.528 1299.524, 561.443 1304.610 C 550.046 1316.007, 531.707 1313.294, 523.642 1299.019 C 519.852 1292.310, 519.625 1284.970, 522.967 1277.258 C 527.679 1266.389, 536.371 1261.816, 548.119 1264.026 C 556.815 1265.662, 560.231 1264.894, 568.562 1259.429 C 583.629 1249.547, 584.250 1248.186, 582.443 1229 C 579.115 1193.660, 576.120 1176.464, 569.469 1154.500 C 555.757 1109.217, 529.166 1072.292, 494.675 1050.638 C 466.401 1032.887, 435.559 1029.799, 405.500 1041.710 C 363.247 1058.453, 331.962 1096.468, 312.853 1154.287 C 305.595 1176.248, 298.006 1217.526, 298.001 1235.068 C 297.998 1246.853, 303.778 1255.185, 315.918 1260.899 C 321.638 1263.590, 323.270 1263.902, 330.918 1263.761 C 337.917 1263.633, 340.238 1263.992, 343.500 1265.710 C 352.015 1270.195, 356.417 1277.422, 356.466 1287 C 356.579 1308.662, 330.749 1319.801, 315.580 1304.632 C 311.046 1300.098, 308 1293.110, 308 1287.242 C 308 1285.372, 309.188 1280.871, 310.641 1277.241 L 313.281 1270.640 309.891 1267.706 C 297.708 1257.164, 289.750 1249.418, 288.381 1246.769 C 286.978 1244.057, 286.929 1241.810, 287.958 1227.257 C 291.417 1178.295, 302.767 1137.136, 322.497 1102 C 345.665 1060.742, 372.582 1036.110, 408.331 1023.455 C 413.012 1021.798, 416.722 1019.827, 417.556 1018.554 C 418.430 1017.222, 420.279 1004.662, 422.502 984.963 C 426.780 947.057, 429.599 929.756, 435 908.242 C 443.723 873.501, 456.162 843.275, 473.785 814 C 483.622 797.659, 489.698 789.056, 505.812 768.649 C 513.133 759.377, 518.876 751.543, 518.574 751.241 C 517.416 750.082, 489.137 765.824, 466.863 780.027 C 376.031 837.943, 299.992 923.120, 250.060 1022.883 C 217.535 1087.867, 196.977 1155.232, 185.492 1234.461 C 182.135 1257.618, 182.113 1260.814, 185.274 1266.191 C 189.839 1273.957, 203.060 1292.046, 215.034 1306.909 C 317.110 1433.606, 481.525 1510.826, 695.307 1532.478 C 747.798 1537.794, 778.211 1539.193, 830.500 1538.696 C 877.411 1538.249, 893.846 1537.570, 932.500 1534.478 C 1014.323 1527.933, 1091.733 1512.598, 1161 1489.212 C 1241.194 1462.136, 1306.765 1426.139, 1366.500 1376.396 C 1382.453 1363.111, 1414.119 1331.573, 1427.312 1315.829 C 1439.408 1301.393, 1458.545 1275.838, 1463.384 1267.658 C 1467.779 1260.229, 1467.814 1259.202, 1464.469 1236 C 1437.710 1050.374, 1336.854 890.939, 1180 786.307 C 1161.489 773.959, 1121.710 751, 1118.828 751 C 1116.637 751, 1118.697 754.259, 1126.097 762.500 C 1170.901 812.395, 1201.651 869.464, 1217.671 932.452 C 1219.622 940.126, 1221.912 947.462, 1222.758 948.753 C 1224.712 951.735, 1228.289 953.565, 1234 954.503 C 1236.475 954.910, 1242.220 956.503, 1246.767 958.045 C 1275.621 967.825, 1297.580 991.199, 1306.578 1021.712 C 1310.109 1033.686, 1310.985 1052.032, 1308.590 1063.854 C 1304.671 1083.193, 1296.261 1099.515, 1283.139 1113.250 C 1253.941 1143.811, 1210.663 1150.894, 1171.500 1131.520 C 1152.772 1122.255, 1140.850 1110.345, 1131.441 1091.500 C 1123.332 1075.256, 1120.703 1064.216, 1120.610 1046 C 1120.547 1033.816, 1120.893 1030.256, 1122.775 1023.711 C 1127.348 1007.813, 1135.139 994.190, 1146.622 982.018 C 1157.213 970.790, 1169.699 962.810, 1185.796 956.979 C 1193.148 954.316, 1193.036 956.856, 1186.803 934.062 C 1163.731 849.700, 1113.771 776.412, 1043.411 723.718 C 1036.641 718.648, 1031.079 714.107, 1031.051 713.627 C 1031.023 713.148, 1034.976 707.523, 1039.836 701.127 C 1090.318 634.700, 1123.225 554.026, 1138.397 459.500 C 1149.875 387.990, 1151.850 336.829, 1144.842 292.518 C 1136.135 237.460, 1112.718 181.745, 1079.562 137.197 C 1066.796 120.045, 1039.683 92.122, 1023.083 79.031 C 982.578 47.088, 934.937 23.974, 890 14.465 C 870.089 10.252, 856.519 8.852, 832.500 8.533 C 819.300 8.359, 806.475 8.393, 804 8.609 M 996.500 220.585 C 995.400 221.422, 989.180 225.291, 982.679 229.183 C 936.752 256.678, 880.429 269.229, 817.572 265.976 C 757.251 262.854, 698.913 249.325, 641.355 225.110 C 626.547 218.880, 623.199 218.642, 616.359 223.332 C 594.334 238.437, 582.696 278.603, 582.702 339.500 C 582.704 365.249, 583.508 378.488, 587.095 411.830 C 588.238 422.461, 588.918 431.416, 588.604 431.729 C 588.291 432.043, 578.518 427.940, 566.887 422.613 C 555.256 417.285, 545.592 413.074, 545.411 413.255 C 544.739 413.928, 550.028 452.062, 552.956 467.651 C 567.538 545.292, 597.436 614.587, 640.160 669.765 C 644.732 675.669, 655.904 687.952, 664.986 697.060 C 689.158 721.298, 709.909 736.274, 738.500 750.112 C 754.940 758.069, 769.112 762.945, 786.744 766.710 C 798.538 769.228, 801.272 769.436, 823 769.463 C 843.287 769.489, 848.096 769.186, 858.176 767.251 C 907.027 757.873, 949.757 734.066, 986.678 695.658 C 1044.748 635.250, 1084.372 549.556, 1098.881 453 C 1104.981 412.412, 1109.859 364.504, 1107.816 365.250 C 1107.440 365.387, 1098.736 375.175, 1088.474 387 C 1078.213 398.825, 1069.029 409.317, 1068.066 410.315 C 1066.395 412.046, 1066.319 411.215, 1066.407 392.315 C 1066.488 375.071, 1066.202 371.170, 1064.204 362.249 C 1058.959 338.837, 1047.314 308.945, 1029.826 274 C 1017.430 249.229, 1000.558 218.967, 999.181 219.032 C 998.806 219.049, 997.600 219.748, 996.500 220.585 M 651.134 750 C 655.148 756.268, 818.178 982.521, 818.799 982.686 C 819.184 982.788, 850.775 941.468, 889 890.863 C 927.225 840.259, 965.823 789.172, 974.773 777.337 C 983.811 765.386, 989.591 756.997, 987.773 758.469 C 967.786 774.649, 951.732 785.077, 931.500 795.023 C 897.014 811.977, 867.874 819.456, 831.500 820.689 C 802.641 821.668, 778.133 818.110, 750.500 808.930 C 718.260 798.220, 681.957 776.808, 655.517 752.908 C 652.155 749.870, 650.235 748.596, 651.134 750 M 969 1190 L 969 1222 937 1222 L 905 1222 905 1248.500 L 905 1275 937 1275 L 969 1275 969 1306.500 L 969 1338 996 1338 L 1023 1338 1023 1306.500 L 1023 1275 1054.500 1275 L 1086 1275 1086 1248 L 1086 1221 1054 1221 L 1022 1221 1022 1189.500 L 1022 1158 995.500 1158 L 969 1158 969 1190" stroke="none" fill="#040404" fill-rule="evenodd"/></svg>