<svg xmlns="http://www.w3.org/2000/svg" width="1656" height="1547" viewBox="0 0 1656 1547" version="1.1"><path d="" stroke="none" fill="#080404" fill-rule="evenodd"/><path d="M 822.973 176.651 C 818.381 179.717, 813.836 184.478, 811.662 188.500 C 809.552 192.403, 809.507 193.301, 809.781 225.500 C 810.263 281.963, 812.521 325.974, 817.092 368 C 831.296 498.580, 862.118 579.650, 913 620.264 C 917.125 623.557, 920.901 626.942, 921.390 627.787 C 922.452 629.619, 921.366 718.964, 919.948 746.500 C 914.827 845.910, 892.457 919.521, 855.397 958.916 C 845.663 969.264, 836.777 975.974, 825.500 981.495 C 807.213 990.448, 793.379 992.554, 758.602 991.677 C 714.621 990.567, 690.745 986.249, 647.245 971.534 C 599.773 955.475, 569.466 950.115, 532.669 951.270 C 513.237 951.880, 503.446 953.520, 488.804 958.616 C 456.438 969.882, 429.744 991.065, 404.517 1025.500 C 380.613 1058.130, 363.594 1094.670, 329.392 1186.799 C 318.034 1217.394, 317.784 1219.388, 324.015 1229.646 C 338.187 1252.972, 358.806 1269.510, 385.500 1278.959 C 400.346 1284.214, 410.792 1286.068, 429.114 1286.698 C 447.143 1287.317, 464.795 1285.971, 472.341 1283.400 C 477.670 1281.584, 483.820 1276.007, 486.332 1270.712 C 487.298 1268.676, 490.044 1259.246, 492.434 1249.755 C 501.043 1215.567, 509.863 1193.276, 520.232 1179.500 C 527.483 1169.865, 531.352 1167.994, 543.962 1168.020 C 571.883 1168.078, 588.135 1174.854, 615.405 1197.806 C 621.086 1202.588, 636.257 1215.809, 649.117 1227.186 C 677.642 1252.421, 691.240 1263.288, 709.500 1275.440 C 763.769 1311.558, 820.977 1330.249, 892 1335.066 C 911.499 1336.389, 955.503 1335.832, 974 1334.029 C 1092.005 1322.526, 1197.595 1277.253, 1284.700 1200.812 C 1298.463 1188.733, 1326.564 1159.825, 1338.929 1145.025 C 1399.449 1072.583, 1440.027 988.056, 1461.974 888.711 C 1467.967 861.587, 1474.327 821.333, 1478.095 786.686 C 1480.764 762.142, 1481.826 704.898, 1480.060 680.769 C 1473.216 587.252, 1443.409 508.142, 1392.923 449.500 C 1357.968 408.899, 1311.169 377, 1263.142 361.039 C 1222.461 347.519, 1183.744 344.892, 1124 351.599 C 1077.603 356.808, 1046.839 368.953, 1009.295 396.882 L 1001.089 402.986 998.090 393.622 C 989.072 365.471, 986.731 337.712, 985.470 244 C 985.141 219.525, 984.412 197.390, 983.851 194.812 C 982.292 187.650, 977.916 181.565, 971.805 178.061 L 966.500 175.019 895.973 175.009 C 832.068 175.001, 825.213 175.155, 822.973 176.651 M 858.430 233.750 C 858.759 239.662, 859.477 256.650, 860.026 271.500 C 862.842 347.734, 866.433 386.690, 875.093 434.961 C 884.855 489.381, 902.784 537.137, 922.570 561.427 C 928.038 568.140, 928.186 568.040, 929.931 556.500 C 934.699 524.968, 945.202 491.032, 959.109 462.225 C 962.899 454.373, 966 447.080, 966 446.018 C 966 444.955, 963.785 439.229, 961.078 433.293 C 950.032 409.072, 944.082 380.615, 941.014 337.335 C 939.870 321.194, 938.073 260.974, 938.027 237.250 L 938 223 897.916 223 L 857.831 223 858.430 233.750 M 1173 395.705 C 1113.975 397.382, 1079.393 405.971, 1049.573 426.358 C 1037.209 434.811, 1025.255 446.371, 1020.986 454.003 C 1019.069 457.430, 1015.372 462.650, 1012.771 465.604 C 1002.068 477.760, 986.833 515.557, 980.165 546.500 C 971.801 585.316, 969.665 614.015, 967.999 710 C 967.075 763.236, 966.125 779.823, 962.476 806.500 C 958.645 834.510, 951.495 868.543, 944.496 892.082 C 922.700 965.397, 881.649 1014.623, 827.994 1031.787 C 805.096 1039.111, 788.432 1040.720, 752.246 1039.101 C 700.879 1036.801, 679.992 1033.037, 635 1017.969 C 597.278 1005.337, 578.896 1001.126, 552.290 999.023 C 520.900 996.542, 496.514 1001.895, 477.544 1015.431 C 469.142 1021.427, 450.918 1040.639, 442.793 1052.067 C 428.569 1072.071, 420.724 1088.026, 401.032 1137 C 380.927 1187.001, 373 1208.136, 373 1211.745 C 373 1214.728, 373.765 1216.072, 377.377 1219.430 C 391.023 1232.119, 412.529 1238.651, 437.901 1237.811 L 447.302 1237.500 451.191 1222.500 C 458.651 1193.730, 466.805 1173.721, 478.087 1156.500 C 484.921 1146.068, 499.674 1131.435, 507.500 1127.327 C 518.665 1121.466, 523.573 1120.537, 543.500 1120.518 C 563.503 1120.498, 574.891 1122.100, 590.243 1127.093 C 612.899 1134.461, 625.784 1142.913, 657.417 1171.150 C 721.304 1228.180, 734.104 1237.944, 767.500 1255.113 C 797.992 1270.789, 827.536 1279.547, 869 1285.203 C 883.631 1287.198, 889.747 1287.456, 923 1287.477 C 961.129 1287.500, 971.853 1286.861, 998.500 1282.978 C 1028.913 1278.546, 1055.146 1272.263, 1086 1262.021 C 1208.629 1221.317, 1307.562 1134.650, 1367.125 1015.751 C 1403.308 943.523, 1427.235 848.966, 1433.107 755 C 1434.537 732.131, 1433.719 685.586, 1431.562 667 C 1422.580 589.606, 1397.784 528.117, 1355.972 479.550 C 1315.811 432.901, 1252.906 399.513, 1199.500 396.499 C 1194 396.189, 1187.700 395.829, 1185.500 395.699 C 1183.300 395.570, 1177.675 395.572, 1173 395.705" stroke="none" fill="#040404" fill-rule="evenodd"/></svg>