<svg xmlns="http://www.w3.org/2000/svg" width="1656" height="1547" viewBox="0 0 1656 1547" version="1.1"><path d="" stroke="none" fill="#080404" fill-rule="evenodd"/><path d="M 627.530 209.235 C 618.664 211.078, 606.542 219.759, 597.457 230.774 C 571.362 262.410, 570.323 314.483, 595.055 351.119 C 601.053 360.004, 610.922 369.523, 621.336 376.466 C 631.222 383.059, 634.400 386.959, 636.109 394.596 C 636.999 398.574, 637.010 490.276, 636.153 780.158 C 635.408 1032.404, 635.362 1166.731, 636.018 1179 C 638.274 1221.200, 644.454 1252.444, 655.652 1278.270 C 657.615 1282.796, 659.199 1287.287, 659.173 1288.250 C 659.146 1289.213, 659.503 1290, 659.967 1290 C 660.430 1290, 662.271 1292.588, 664.058 1295.750 C 665.845 1298.913, 668.163 1303.021, 669.209 1304.879 C 676.097 1317.117, 701.905 1343.745, 718.034 1355.255 C 736.842 1368.677, 765.059 1380.997, 788.500 1386.021 C 801.111 1388.724, 832.531 1389.863, 845.165 1388.076 C 871.072 1384.411, 899.388 1374.255, 918.908 1361.628 C 922.843 1359.083, 926.701 1357, 927.481 1357 C 928.262 1357, 929.260 1356.373, 929.700 1355.607 C 930.140 1354.841, 934.100 1351.285, 938.500 1347.706 C 947.690 1340.230, 960.597 1327.224, 967.483 1318.500 C 970.088 1315.200, 973.013 1311.825, 973.984 1311 C 976.459 1308.898, 979.944 1303.303, 978.053 1304.469 C 977.209 1304.990, 977.474 1304.141, 978.691 1302.431 C 979.837 1300.819, 983.036 1295, 985.799 1289.500 C 1001.734 1257.780, 1009.223 1224.489, 1012.009 1173 C 1013.121 1152.443, 1012.735 696.384, 1011.419 475.810 L 1010.842 379.120 1015.171 377.966 C 1036.220 372.359, 1054.690 356.406, 1064.918 335 C 1070.821 322.645, 1073 313.021, 1073 299.298 C 1073 280.338, 1068.821 265.461, 1058.744 248.540 C 1050.417 234.561, 1032.838 217.016, 1021.249 211.121 L 1016.998 208.958 824.033 208.729 C 717.902 208.603, 629.476 208.831, 627.530 209.235 M 644 224.036 C 633.214 225.036, 627.203 227.091, 618.801 232.652 C 607.810 239.927, 600.307 251.014, 595.760 266.701 C 593.738 273.678, 593.510 276.555, 593.590 294 C 593.672 311.592, 593.931 314.438, 596.242 323.089 C 602.018 344.714, 611.714 355.338, 630.500 360.625 C 635.900 362.145, 648.708 362.400, 758.500 363.179 C 825.600 363.655, 909.075 363.882, 944 363.685 C 999.096 363.373, 1008.329 363.107, 1013.760 361.672 C 1039.012 355.002, 1052.458 335.226, 1055.487 300.300 C 1056.826 284.858, 1052.424 263.138, 1045.393 250.500 C 1041.770 243.986, 1030.855 233.195, 1024.425 229.770 C 1021.634 228.282, 1016.684 226.273, 1013.425 225.303 C 1007.871 223.651, 996.380 223.531, 830 223.394 C 732.375 223.313, 648.675 223.602, 644 224.036 M 653.200 380.200 C 652.328 381.072, 652 388.533, 652 407.500 C 652 426.467, 652.328 433.928, 653.200 434.800 C 654.088 435.688, 663.543 436, 689.545 436 C 722.323 436, 724.801 436.123, 726.345 437.829 C 728.582 440.300, 728.483 446.253, 726.171 448.345 C 724.543 449.819, 720.495 450, 689.171 450 L 654 450 654 479.488 L 654 508.975 690.250 509.238 L 726.500 509.500 726.802 515.334 C 726.981 518.775, 726.623 521.749, 725.930 522.584 C 724.957 523.756, 718.667 524, 689.378 524 L 654 524 654 552.500 L 654 581 687.750 581.015 C 722.429 581.030, 724.923 581.286, 727.291 585.082 C 727.854 585.985, 727.977 588.667, 727.577 591.332 L 726.877 596 690.639 596 C 663.786 596, 654.089 596.311, 653.200 597.200 C 652.298 598.102, 652 611.043, 652 649.294 L 652 700.188 657.250 699.497 C 675.587 697.085, 722.156 687.554, 736 683.379 C 749.144 679.415, 771.397 670.393, 783 664.325 C 788.775 661.305, 804.975 651.282, 819 642.051 C 848.079 622.913, 855.519 618.513, 873 610.118 C 900.356 596.980, 933.787 588.214, 974.494 583.503 C 981.641 582.677, 989.162 582, 991.209 582 C 993.864 582, 995.226 581.446, 995.965 580.066 C 997.403 577.378, 997.403 383.622, 995.965 380.934 C 994.948 379.034, 991.977 379, 824.665 379 C 693.570 379, 654.124 379.276, 653.200 380.200 M 966 600.602 C 953.625 601.887, 942.121 603.401, 940.435 603.967 C 938.750 604.533, 930.075 606.794, 921.158 608.992 C 912.240 611.189, 903.044 613.948, 900.722 615.122 C 889.411 620.840, 813.688 662.829, 808 666.537 C 769.671 691.526, 721.515 707.842, 669.315 713.527 C 661.167 714.414, 654.141 715.490, 653.703 715.917 C 652.512 717.078, 652.838 1205.693, 654.038 1218.726 C 656.633 1246.911, 665.232 1271.851, 680.260 1294.778 C 708.372 1337.669, 748.732 1363.385, 802.500 1372.666 C 822.542 1376.125, 852.761 1373.800, 871.207 1367.380 C 940.022 1343.427, 979.419 1298.520, 993.936 1227.488 L 996.999 1212.500 997 905.250 L 997 598 992.750 598.133 C 990.413 598.206, 978.375 599.318, 966 600.602 M 815 726.296 C 806.214 728.813, 800.520 732.441, 791.947 740.980 C 779.150 753.726, 770.522 767.966, 763.674 787.638 C 754.695 813.435, 751.502 849.714, 756.558 868.500 C 761.329 886.225, 772.853 898.061, 797.497 910.544 C 811.527 917.652, 811.550 917.695, 812.318 938.677 C 813.233 963.659, 816.753 978.949, 828.049 1007 C 834.633 1023.347, 836.548 1032.195, 835.633 1042.035 C 834.645 1052.672, 831.637 1060.861, 819.484 1086 C 806.944 1111.939, 804.623 1118.159, 802.957 1130.284 C 800.497 1148.188, 804.570 1163.922, 816.985 1184.475 C 827.754 1202.304, 831.501 1215.046, 831.402 1233.500 C 831.329 1247.222, 831.445 1246.698, 823.449 1269.246 C 821.876 1273.682, 821.875 1274.160, 823.435 1276.541 C 825.252 1279.315, 828.719 1281, 832.607 1281 C 834.698 1281, 835.555 1279.950, 838.116 1274.250 C 839.783 1270.537, 842.324 1263.675, 843.762 1259 C 846.116 1251.347, 846.383 1248.856, 846.438 1234 C 846.495 1218.897, 846.264 1216.653, 843.713 1207.500 C 840.995 1197.750, 834.193 1182.708, 826.044 1168.426 C 821.418 1160.317, 817.992 1148.225, 818.017 1140.090 C 818.056 1127.523, 822.733 1114.432, 838.068 1083.961 C 849.704 1060.842, 853.211 1045.749, 851.060 1028.055 C 849.836 1017.989, 847.307 1010.109, 840.582 995.410 C 835.387 984.055, 831.731 970.826, 830.104 957.500 C 828.931 947.892, 828.639 925.815, 829.607 919.965 L 830.192 916.430 839.346 914.221 C 865.400 907.936, 882.888 892.450, 888.420 870.766 C 892.671 854.100, 892.990 823.145, 889.095 805.306 C 881.506 770.553, 861.241 738.091, 841.314 728.766 C 833.842 725.270, 822.346 724.190, 815 726.296 M 816.882 743.320 C 810.810 745.592, 806.448 748.764, 800.341 755.348 C 780.731 776.490, 768.527 815.388, 770.332 851 C 771.183 867.799, 774.161 876.744, 781.667 885.053 C 788.476 892.590, 805.540 898.686, 822.500 899.641 C 850.218 901.200, 869.651 888.771, 875.008 866.057 C 876.817 858.387, 875.716 831.026, 872.953 815 C 867.140 781.285, 852.005 753.113, 835.088 744.515 C 830.553 742.210, 821.445 741.612, 816.882 743.320 M 791.685 794.265 C 786.358 807.603, 782 818.840, 782 819.235 C 782 819.629, 783.684 820.816, 785.743 821.872 C 789.417 823.757, 789.554 823.758, 793.185 821.906 C 798.706 819.089, 801.863 814.158, 805.440 802.762 C 809.232 790.685, 810.252 788.544, 814.216 784.353 L 817.193 781.206 811.846 777.273 C 808.906 775.111, 805.346 772.592, 803.935 771.677 L 801.370 770.013 791.685 794.265" stroke="none" fill="#040404" fill-rule="evenodd"/></svg>