<svg xmlns="http://www.w3.org/2000/svg" width="300" height="226" viewBox="0 0 300 226" version="1.1"><path d="M 170.250 54.735 C 172.863 54.941, 177.137 54.941, 179.750 54.735 C 182.363 54.529, 180.225 54.360, 175 54.360 C 169.775 54.360, 167.637 54.529, 170.250 54.735 M 160.750 55.662 C 161.438 55.940, 162.563 55.940, 163.250 55.662 C 163.938 55.385, 163.375 55.158, 162 55.158 C 160.625 55.158, 160.063 55.385, 160.750 55.662 M 186.750 55.662 C 187.438 55.940, 188.563 55.940, 189.250 55.662 C 189.938 55.385, 189.375 55.158, 188 55.158 C 186.625 55.158, 186.063 55.385, 186.750 55.662 M 200 59 C 200.825 59.533, 201.950 59.969, 202.500 59.969 C 203.050 59.969, 202.825 59.533, 202 59 C 201.175 58.467, 200.050 58.031, 199.500 58.031 C 198.950 58.031, 199.175 58.467, 200 59 M 146 60 C 145.175 60.533, 144.950 60.969, 145.500 60.969 C 146.050 60.969, 147.175 60.533, 148 60 C 148.825 59.467, 149.050 59.031, 148.500 59.031 C 147.950 59.031, 146.825 59.467, 146 60 M 204.083 60.373 C 205.112 61.294, 211 63.999, 211 63.551 C 211 62.975, 205.456 60, 204.383 60 C 203.989 60, 203.854 60.168, 204.083 60.373 M 165.250 61.689 C 166.213 61.941, 167.787 61.941, 168.750 61.689 C 169.713 61.438, 168.925 61.232, 167 61.232 C 165.075 61.232, 164.287 61.438, 165.250 61.689 M 182.269 61.693 C 183.242 61.947, 184.592 61.930, 185.269 61.656 C 185.946 61.382, 185.150 61.175, 183.500 61.195 C 181.850 61.215, 181.296 61.439, 182.269 61.693 M 137.441 64.555 C 135.577 66.049, 135.589 66.067, 137.750 65.020 C 138.988 64.420, 140 63.720, 140 63.465 C 140 62.700, 139.481 62.921, 137.441 64.555 M 154 64 C 152.172 65.181, 153.751 65.181, 156.500 64 C 157.819 63.433, 157.989 63.122, 157 63.086 C 156.175 63.055, 154.825 63.467, 154 64 M 195 64.500 C 199.566 66.258, 201.362 66.232, 197.500 64.464 C 195.850 63.708, 193.825 63.104, 193 63.121 C 192.175 63.138, 193.075 63.759, 195 64.500 M 212.500 64.663 C 215.055 67.083, 221.333 71.177, 219.817 69.435 C 218.891 68.371, 216.641 66.649, 214.817 65.608 C 212.993 64.567, 211.950 64.142, 212.500 64.663 M 130.417 69.572 L 126.500 73.145 130.750 69.905 C 134.633 66.945, 135.581 66, 134.667 66 C 134.483 66, 132.571 67.608, 130.417 69.572 M 140.441 70.555 C 138.577 72.049, 138.589 72.067, 140.750 71.020 C 141.988 70.420, 143 69.720, 143 69.465 C 143 68.700, 142.481 68.921, 140.441 70.555 M 225.500 75 C 227.648 77.200, 229.631 79, 229.906 79 C 230.181 79, 228.648 77.200, 226.500 75 C 224.352 72.800, 222.369 71, 222.094 71 C 221.819 71, 223.352 72.800, 225.500 75 M 212.500 72.649 C 213.050 73.184, 216.650 76.507, 220.500 80.034 C 226.963 85.954, 227.116 86.040, 222.500 81.144 C 219.750 78.227, 216.150 74.904, 214.500 73.759 C 212.850 72.613, 211.950 72.114, 212.500 72.649 M 123.405 75.250 L 121.500 77.500 123.750 75.595 C 124.987 74.547, 126 73.535, 126 73.345 C 126 72.545, 125.195 73.136, 123.405 75.250 M 127.339 81.397 C 122.114 87.121, 117.187 94, 118.311 94 C 118.544 94, 120 92.088, 121.546 89.751 C 123.093 87.414, 126.593 83.139, 129.324 80.251 C 132.055 77.363, 134.040 75, 133.734 75 C 133.428 75, 130.550 77.879, 127.339 81.397 M 172.750 78.706 C 173.988 78.944, 176.012 78.944, 177.250 78.706 C 178.488 78.467, 177.475 78.272, 175 78.272 C 172.525 78.272, 171.512 78.467, 172.750 78.706 M 118.405 81.250 L 116.500 83.500 118.750 81.595 C 119.987 80.547, 121 79.535, 121 79.345 C 121 78.545, 120.195 79.136, 118.405 81.250 M 182.750 79.662 C 183.438 79.940, 184.563 79.940, 185.250 79.662 C 185.938 79.385, 185.375 79.158, 184 79.158 C 182.625 79.158, 182.063 79.385, 182.750 79.662 M 232.510 83.500 C 236.517 89.066, 237.625 90.098, 235.392 86.183 C 234.351 84.359, 232.629 82.109, 231.565 81.183 C 230.440 80.204, 230.835 81.173, 232.510 83.500 M 193.083 82.373 C 194.112 83.294, 200 85.999, 200 85.551 C 200 84.975, 194.456 82, 193.383 82 C 192.989 82, 192.854 82.168, 193.083 82.373 M 147.861 87.059 L 145.500 89.119 148.250 87.444 C 149.762 86.523, 151 85.597, 151 85.385 C 151 84.604, 150.165 85.050, 147.861 87.059 M 171.728 85.722 C 173.503 85.943, 176.653 85.946, 178.728 85.730 C 180.802 85.513, 179.350 85.333, 175.500 85.328 C 171.650 85.324, 169.952 85.501, 171.728 85.722 M 228.511 89.377 C 229.457 90.820, 230.419 92, 230.650 92 C 231.374 92, 229.045 88.146, 227.891 87.433 C 227.287 87.059, 227.566 87.934, 228.511 89.377 M 156.441 89.555 C 154.611 91.022, 154.643 91.042, 157 89.920 C 160.061 88.462, 160.628 88, 159.358 88 C 158.821 88, 157.509 88.700, 156.441 89.555 M 194 90.591 C 196.475 92.002, 199.365 93.909, 200.422 94.829 C 201.515 95.779, 202.002 95.919, 201.552 95.152 C 200.609 93.545, 192.059 87.995, 190.554 88.012 C 189.974 88.019, 191.525 89.179, 194 90.591 M 207.958 92.250 C 210.410 94.862, 212.548 97, 212.708 97 C 213.459 97, 212.665 96.102, 208.250 91.958 L 203.500 87.500 207.958 92.250 M 140.946 92.750 L 137.500 96.500 141.250 93.054 C 143.313 91.158, 145 89.471, 145 89.304 C 145 88.540, 144.154 89.260, 140.946 92.750 M 238.695 93.487 C 239.610 95.406, 240.536 96.797, 240.753 96.580 C 241.210 96.123, 238.175 90, 237.490 90 C 237.239 90, 237.781 91.569, 238.695 93.487 M 147.162 96.663 L 141.500 102.326 147.500 96.972 C 150.800 94.027, 153.688 91.479, 153.917 91.309 C 154.146 91.139, 153.994 91, 153.579 91 C 153.164 91, 150.276 93.548, 147.162 96.663 M 233.202 97.478 C 234.398 99.941, 235.549 101.785, 235.758 101.575 C 236.211 101.123, 232.170 93, 231.493 93 C 231.236 93, 232.005 95.015, 233.202 97.478 M 136.278 98.250 C 134.779 100.188, 133.836 102, 134.326 102 C 134.570 102, 135.507 100.875, 136.408 99.500 C 138.094 96.927, 138 96.024, 136.278 98.250 M 107.116 101.098 C 106.502 102.858, 106.032 104.794, 106.070 105.399 C 106.109 106.005, 106.786 104.739, 107.574 102.587 C 108.363 100.435, 108.833 98.500, 108.620 98.286 C 108.406 98.073, 107.729 99.338, 107.116 101.098 M 114.624 100.539 C 113.659 103.053, 113.943 103.702, 115.122 101.675 C 115.706 100.671, 115.973 99.639, 115.715 99.382 C 115.458 99.124, 114.966 99.645, 114.624 100.539 M 206.500 101 C 207.495 102.100, 208.535 103, 208.810 103 C 209.085 103, 208.495 102.100, 207.500 101 C 206.505 99.900, 205.465 99, 205.190 99 C 204.915 99, 205.505 99.900, 206.500 101 M 216.080 103 C 217.538 106.061, 218 106.628, 218 105.358 C 218 104.821, 217.300 103.509, 216.445 102.441 C 214.978 100.611, 214.958 100.643, 216.080 103 M 140 105 C 139.411 106.100, 139.155 107, 139.430 107 C 139.705 107, 140.411 106.100, 141 105 C 141.589 103.900, 141.845 103, 141.570 103 C 141.295 103, 140.589 103.900, 140 105 M 210.695 107.487 C 211.610 109.406, 212.536 110.797, 212.753 110.580 C 213.210 110.123, 210.175 104, 209.490 104 C 209.239 104, 209.781 105.569, 210.695 107.487 M 130.624 108.539 C 130.281 109.432, 130.029 110.689, 130.063 111.332 C 130.098 111.974, 130.558 111.422, 131.085 110.105 C 131.612 108.787, 131.864 107.531, 131.645 107.312 C 131.426 107.093, 130.966 107.645, 130.624 108.539 M 137.624 109.539 C 136.659 112.053, 136.943 112.702, 138.122 110.675 C 138.706 109.671, 138.973 108.639, 138.715 108.382 C 138.458 108.124, 137.966 108.645, 137.624 109.539 M 177.232 111 C 177.232 112.925, 177.438 113.713, 177.689 112.750 C 177.941 111.787, 177.941 110.213, 177.689 109.250 C 177.438 108.287, 177.232 109.075, 177.232 111 M 238.158 111 C 238.158 112.375, 238.385 112.938, 238.662 112.250 C 238.940 111.563, 238.940 110.438, 238.662 109.750 C 238.385 109.063, 238.158 109.625, 238.158 111 M 104.158 113 C 104.158 114.375, 104.385 114.938, 104.662 114.250 C 104.940 113.563, 104.940 112.438, 104.662 111.750 C 104.385 111.063, 104.158 111.625, 104.158 113 M 239.232 117 C 239.232 118.925, 239.438 119.713, 239.689 118.750 C 239.941 117.787, 239.941 116.213, 239.689 115.250 C 239.438 114.287, 239.232 115.075, 239.232 117 M 214.158 117 C 214.158 118.375, 214.385 118.938, 214.662 118.250 C 214.940 117.563, 214.940 116.438, 214.662 115.750 C 214.385 115.063, 214.158 115.625, 214.158 117 M 110.360 125 C 110.360 130.225, 110.529 132.363, 110.735 129.750 C 110.941 127.138, 110.941 122.862, 110.735 120.250 C 110.529 117.638, 110.360 119.775, 110.360 125 M 135.158 118 C 135.158 119.375, 135.385 119.938, 135.662 119.250 C 135.940 118.563, 135.940 117.438, 135.662 116.750 C 135.385 116.063, 135.158 116.625, 135.158 118 M 160.220 118.533 C 161.716 120.106, 163.119 121.193, 163.338 120.947 C 163.557 120.701, 162.333 119.414, 160.618 118.086 L 157.500 115.672 160.220 118.533 M 221.158 118 C 221.158 119.375, 221.385 119.938, 221.662 119.250 C 221.940 118.563, 221.940 117.438, 221.662 116.750 C 221.385 116.063, 221.158 116.625, 221.158 118 M 246.365 125.500 C 246.368 131, 246.536 133.122, 246.738 130.216 C 246.941 127.311, 246.939 122.811, 246.734 120.216 C 246.528 117.622, 246.363 120, 246.365 125.500 M 128.160 120.250 C 127.977 124.546, 128.523 124.775, 132 121.859 L 134.500 119.763 131.812 121.364 C 129.135 122.958, 129.123 122.952, 128.722 119.732 C 128.329 116.572, 128.317 116.583, 128.160 120.250 M 172.500 119.068 C 170.850 120.125, 170.013 120.992, 170.639 120.995 C 171.266 120.998, 172.841 120.115, 174.139 119.033 C 177.112 116.556, 176.397 116.572, 172.500 119.068 M 103.343 125.500 C 103.346 129.900, 103.522 131.576, 103.733 129.224 C 103.945 126.872, 103.942 123.272, 103.727 121.224 C 103.512 119.176, 103.339 121.100, 103.343 125.500 M 215.272 125 C 215.272 127.475, 215.467 128.488, 215.706 127.250 C 215.944 126.013, 215.944 123.987, 215.706 122.750 C 215.467 121.513, 215.272 122.525, 215.272 125 M 192.685 125.007 C 197.205 126.828, 198.440 133.560, 194.904 137.096 C 193.328 138.672, 191.861 139.101, 188.988 138.827 C 186.887 138.627, 185.382 138.809, 185.643 139.232 C 185.904 139.654, 187.687 140, 189.604 140 C 194.027 140, 198 136.300, 198 132.180 C 198 128.752, 194.572 123.973, 192.177 124.063 C 190.945 124.110, 191.080 124.361, 192.685 125.007 M 182.980 126.524 C 182.284 127.362, 181.909 128.242, 182.145 128.479 C 182.382 128.715, 183.125 128.030, 183.796 126.955 C 185.248 124.630, 184.764 124.375, 182.980 126.524 M 181.158 132 C 181.158 133.375, 181.385 133.938, 181.662 133.250 C 181.940 132.563, 181.940 131.438, 181.662 130.750 C 181.385 130.063, 181.158 130.625, 181.158 132 M 221.158 132 C 221.158 133.375, 221.385 133.938, 221.662 133.250 C 221.940 132.563, 221.940 131.438, 221.662 130.750 C 221.385 130.063, 221.158 130.625, 221.158 132 M 146.750 131.706 C 147.988 131.944, 150.012 131.944, 151.250 131.706 C 152.488 131.467, 151.475 131.272, 149 131.272 C 146.525 131.272, 145.512 131.467, 146.750 131.706 M 239.195 133.500 C 239.215 135.150, 239.439 135.704, 239.693 134.731 C 239.947 133.758, 239.930 132.408, 239.656 131.731 C 239.382 131.054, 239.175 131.850, 239.195 133.500 M 104.158 137 C 104.158 138.375, 104.385 138.938, 104.662 138.250 C 104.940 137.563, 104.940 136.438, 104.662 135.750 C 104.385 135.063, 104.158 135.625, 104.158 137 M 132.127 139.478 C 129.857 141.940, 128 144.265, 128 144.644 C 128 145.023, 128.148 145.146, 128.330 144.917 C 128.511 144.688, 130.593 142.363, 132.957 139.750 C 135.321 137.137, 137.030 135, 136.755 135 C 136.480 135, 134.397 137.015, 132.127 139.478 M 111.158 138 C 111.158 139.375, 111.385 139.938, 111.662 139.250 C 111.940 138.563, 111.940 137.438, 111.662 136.750 C 111.385 136.063, 111.158 136.625, 111.158 138 M 160.286 143.500 C 160.294 146.250, 160.488 147.256, 160.718 145.736 C 160.947 144.216, 160.941 141.966, 160.704 140.736 C 160.467 139.506, 160.279 140.750, 160.286 143.500 M 210.695 142.513 C 209.781 144.431, 209.239 146, 209.490 146 C 210.175 146, 213.210 139.877, 212.753 139.420 C 212.536 139.203, 211.610 140.594, 210.695 142.513 M 215.634 147.502 C 213.032 152.470, 206.024 160.002, 200 164.302 C 197.625 165.998, 197.666 165.998, 200.827 164.294 C 205.364 161.847, 214.269 152.353, 216.945 147.109 C 218.152 144.742, 218.985 142.651, 218.796 142.462 C 218.607 142.273, 217.184 144.541, 215.634 147.502 M 106.086 145 C 106.055 145.825, 106.467 147.175, 107 148 C 108.181 149.828, 108.181 148.249, 107 145.500 C 106.433 144.181, 106.122 144.011, 106.086 145 M 113.141 145 C 113.141 145.825, 113.527 147.400, 114 148.500 C 114.542 149.761, 114.859 149.945, 114.859 149 C 114.859 148.175, 114.473 146.600, 114 145.500 C 113.458 144.239, 113.141 144.055, 113.141 145 M 243.079 145.668 C 243.036 146.311, 242.741 147.661, 242.424 148.668 C 241.877 150.409, 241.906 150.412, 242.995 148.712 C 243.626 147.729, 243.920 146.379, 243.650 145.712 C 243.295 144.837, 243.136 144.825, 243.079 145.668 M 126.624 147.539 C 126.281 148.432, 126.039 149.914, 126.086 150.832 C 126.133 151.749, 126.568 151.173, 127.053 149.550 C 127.996 146.394, 127.662 144.832, 126.624 147.539 M 232.048 154.812 C 229.671 159.474, 225.949 164.184, 219.761 170.359 C 214.879 175.232, 212.182 178.294, 213.769 177.165 C 219.280 173.241, 229.519 161.432, 232.846 155.163 C 234.687 151.696, 236.027 148.694, 235.825 148.492 C 235.623 148.290, 233.923 151.134, 232.048 154.812 M 158.144 151.750 C 157.053 154.300, 157.078 154.359, 158.484 152.559 C 159.318 151.491, 160 150.254, 160 149.809 C 160 148.289, 159.322 148.999, 158.144 151.750 M 202.924 153.750 L 200.500 156.500 203.250 154.076 C 205.820 151.810, 206.459 151, 205.674 151 C 205.495 151, 204.258 152.238, 202.924 153.750 M 240.624 152.539 C 239.659 155.053, 239.943 155.702, 241.122 153.675 C 241.706 152.671, 241.973 151.639, 241.715 151.382 C 241.458 151.124, 240.966 151.645, 240.624 152.539 M 152 159.184 C 149.525 161.441, 148.400 162.811, 149.500 162.229 C 151.381 161.235, 157.881 154.952, 156.937 155.041 C 156.697 155.064, 154.475 156.928, 152 159.184 M 197 158.089 C 194.846 159.851, 194.804 159.986, 196.694 159.062 C 197.901 158.472, 199.165 157.542, 199.503 156.995 C 200.406 155.534, 199.800 155.799, 197 158.089 M 237 160 C 236.411 161.100, 236.155 162, 236.430 162 C 236.705 162, 237.411 161.100, 238 160 C 238.589 158.900, 238.845 158, 238.570 158 C 238.295 158, 237.589 158.900, 237 160 M 122.861 162.059 L 120.500 164.119 123.500 162.362 C 127.448 160.050, 127.507 160, 126.277 160 C 125.697 160, 124.159 160.927, 122.861 162.059 M 117.405 166.250 L 115.500 168.500 117.750 166.595 C 119.864 164.805, 120.455 164, 119.655 164 C 119.465 164, 118.453 165.012, 117.405 166.250 M 135.750 165.706 C 136.988 165.944, 139.012 165.944, 140.250 165.706 C 141.488 165.467, 140.475 165.272, 138 165.272 C 135.525 165.272, 134.512 165.467, 135.750 165.706 M 156.367 168.918 C 153.164 170.871, 149.997 174.631, 150.004 176.473 C 150.006 177.038, 150.887 176.058, 151.961 174.296 C 153.036 172.533, 155.622 170.191, 157.708 169.090 C 159.793 167.989, 161.050 167.070, 160.500 167.048 C 159.950 167.026, 158.090 167.867, 156.367 168.918 M 168.286 169.301 C 169.504 170.566, 170.685 171.469, 170.911 171.307 C 171.494 170.888, 167.856 167, 166.881 167 C 166.436 167, 167.068 168.035, 168.286 169.301 M 192 168 C 191.175 168.533, 190.950 168.969, 191.500 168.969 C 192.050 168.969, 193.175 168.533, 194 168 C 194.825 167.467, 195.050 167.031, 194.500 167.031 C 193.950 167.031, 192.825 167.467, 192 168 M 113.970 171.055 C 113.365 172.186, 113.018 173.555, 113.200 174.099 C 113.381 174.642, 114.046 173.717, 114.678 172.043 C 115.991 168.562, 115.598 168.013, 113.970 171.055 M 225.462 175.250 L 220.500 180.500 225.750 175.538 C 230.628 170.926, 231.459 170, 230.712 170 C 230.554 170, 228.192 172.363, 225.462 175.250 M 169.249 179.250 C 168.174 182.188, 168.201 182.314, 169.530 180.559 C 170.802 178.879, 171.553 176, 170.719 176 C 170.565 176, 169.903 177.463, 169.249 179.250 M 112.286 181.500 C 112.294 184.250, 112.488 185.256, 112.718 183.736 C 112.947 182.216, 112.941 179.966, 112.704 178.736 C 112.467 177.506, 112.279 178.750, 112.286 181.500 M 149 182.566 C 149 188.325, 147.678 190.799, 143.671 192.542 C 141.652 193.421, 141.164 193.936, 142.327 193.961 C 143.332 193.982, 145.469 192.685, 147.077 191.077 C 149.540 188.614, 150 187.355, 150 183.077 C 150 180.285, 149.775 178, 149.500 178 C 149.225 178, 149 180.055, 149 182.566 M 206.750 180.572 C 203.012 182.600, 203.239 183.445, 207 181.500 C 208.650 180.647, 210 179.735, 210 179.474 C 210 178.831, 209.893 178.867, 206.750 180.572 M 200 184 C 199.175 184.533, 198.950 184.969, 199.500 184.969 C 200.050 184.969, 201.175 184.533, 202 184 C 202.825 183.467, 203.050 183.031, 202.500 183.031 C 201.950 183.031, 200.825 183.467, 200 184 M 208 187.500 C 205.525 188.825, 203.855 189.930, 204.290 189.955 C 205.352 190.016, 213 186.086, 213 185.480 C 213 184.817, 213.041 184.800, 208 187.500 M 110.144 189.750 C 109.053 192.300, 109.078 192.359, 110.484 190.559 C 111.318 189.491, 112 188.254, 112 187.809 C 112 186.289, 111.322 186.999, 110.144 189.750 M 151.100 190.295 C 149.835 192.402, 149.857 192.423, 151.579 190.774 C 152.570 189.824, 153.166 188.832, 152.903 188.569 C 152.640 188.306, 151.829 189.083, 151.100 190.295 M 155.269 188.693 C 156.242 188.947, 157.592 188.930, 158.269 188.656 C 158.946 188.382, 158.150 188.175, 156.500 188.195 C 154.850 188.215, 154.296 188.439, 155.269 188.693 M 183.750 188.662 C 184.438 188.940, 185.563 188.940, 186.250 188.662 C 186.938 188.385, 186.375 188.158, 185 188.158 C 183.625 188.158, 183.063 188.385, 183.750 188.662 M 115 189.834 C 115 190.477, 113.088 192.889, 110.750 195.195 C 107.401 198.498, 107.161 198.928, 109.618 197.219 C 113.006 194.864, 116.511 190.177, 115.580 189.247 C 115.261 188.928, 115 189.192, 115 189.834 M 177.765 192.527 C 175.710 194.437, 174.384 196, 174.819 196 C 175.253 196, 177.134 194.425, 179 192.500 C 183.353 188.009, 182.607 188.025, 177.765 192.527 M 146.559 194.532 C 145.491 195.339, 145.099 196, 145.686 196 C 146.274 196, 147.315 195.325, 148 194.500 C 149.557 192.624, 149.067 192.634, 146.559 194.532 M 130.325 197.475 C 127.673 200.127, 127.011 201.460, 127.532 203.100 C 127.992 204.551, 127.854 205.028, 127.107 204.566 C 126.385 204.120, 126 205.004, 126 207.108 C 126 208.882, 126.178 210.146, 126.395 209.917 C 127.439 208.815, 129.806 202.002, 128.964 202.522 C 127.480 203.439, 127.819 201.703, 129.628 199.120 C 130.524 197.842, 132.661 196.184, 134.378 195.437 C 136.433 194.543, 136.868 194.065, 135.650 194.039 C 134.633 194.018, 132.236 195.564, 130.325 197.475 M 179.750 195.706 C 180.988 195.944, 183.012 195.944, 184.250 195.706 C 185.488 195.467, 184.475 195.272, 182 195.272 C 179.525 195.272, 178.512 195.467, 179.750 195.706 M 139.250 196.689 C 140.213 196.941, 141.787 196.941, 142.750 196.689 C 143.713 196.438, 142.925 196.232, 141 196.232 C 139.075 196.232, 138.287 196.438, 139.250 196.689 M 131.861 199.059 L 129.500 201.119 132.500 199.362 C 136.448 197.050, 136.507 197, 135.277 197 C 134.697 197, 133.159 197.927, 131.861 199.059 M 93 201 C 91.172 202.181, 92.751 202.181, 95.500 201 C 96.819 200.433, 96.989 200.122, 96 200.086 C 95.175 200.055, 93.825 200.467, 93 201" stroke="none" fill="#696969" fill-rule="evenodd"/><path d="M 157.224 56.954 C 136.585 62.540, 119.382 76.484, 110.861 94.536 C 109.294 97.855, 107.051 104.371, 105.877 109.016 C 103.122 119.910, 103.630 135.975, 107.047 146 C 109.802 154.083, 110.208 154.532, 112.485 152.016 C 114.259 150.056, 114.261 149.766, 112.547 143.742 C 103.891 113.321, 118.091 81.121, 146.089 67.685 C 157.304 62.303, 163.030 60.995, 175.299 61.015 C 189.868 61.038, 201.309 64.612, 213.364 72.907 C 224.416 80.511, 235.096 96.047, 238.491 109.460 C 242.023 123.412, 239.631 142.358, 232.679 155.493 C 228.686 163.039, 216.937 175.443, 209.583 179.877 C 202.984 183.857, 193.272 187.537, 186.811 188.506 C 183.469 189.007, 181.332 190.094, 179.041 192.457 L 175.881 195.718 181.191 195.278 C 190.109 194.540, 198.075 192.206, 207.538 187.561 C 223.580 179.685, 235.745 166.078, 242.217 148.773 C 244.908 141.576, 245.370 138.866, 245.768 127.938 C 246.158 117.214, 245.908 114.223, 244.059 107.484 C 237.534 83.698, 220.718 66.010, 197 57.983 C 187.441 54.748, 167.299 54.227, 157.224 56.954 M 163.105 80.583 C 152.223 83.509, 141.829 90.916, 136.119 99.815 C 132.393 105.621, 129 115.056, 129 119.610 L 129 122.907 131.932 121.224 C 133.805 120.149, 135.072 118.451, 135.441 116.521 C 137.173 107.458, 145.887 95.601, 154.541 90.529 C 164.709 84.570, 178.736 83.570, 190.317 87.979 C 197.761 90.813, 207.945 100.144, 211.480 107.369 C 219.103 122.951, 216.006 140.951, 203.559 153.397 C 200.468 156.488, 196.067 159.586, 192.692 161.046 C 189.002 162.643, 187.191 163.965, 187.510 164.832 C 187.779 165.564, 188 166.802, 188 167.582 C 188 169.577, 189.344 169.369, 195.606 166.407 C 213.049 158.155, 224.296 137.073, 221.206 118.422 C 216.694 91.197, 189.498 73.485, 163.105 80.583 M 161.784 102.682 C 156.063 106.347, 155.759 113.936, 161.150 118.473 C 164.580 121.359, 167.820 121.662, 172.020 119.490 C 175.626 117.625, 177 115.178, 177 110.622 C 177 103.223, 168.148 98.604, 161.784 102.682 M 184.566 126.343 C 179.463 131.446, 182.408 139, 189.500 139 C 198.947 139, 199.662 126.196, 190.316 124.391 C 187.748 123.895, 186.636 124.273, 184.566 126.343 M 140.461 133.878 C 131.901 137.767, 125.369 148.650, 126.546 157.063 C 126.994 160.267, 126.704 160.704, 122.263 163.500 C 116.319 167.244, 113 173.297, 113 180.396 C 113 189.848, 108.264 196.133, 98.164 200.082 C 92.485 202.303, 94.731 202.566, 101.702 200.496 C 110.929 197.756, 116.979 189.682, 116.994 180.088 C 117.002 175.350, 121.196 168.610, 125.367 166.630 C 127.469 165.633, 131.375 165, 135.433 165 C 143.102 165, 147.157 163.557, 152.382 158.970 C 157.481 154.492, 160 149.200, 160 142.963 C 160 138.641, 159.546 137.392, 157.077 134.923 C 154.644 132.490, 153.345 132.004, 149.327 132.022 C 146.672 132.034, 142.683 132.869, 140.461 133.878 M 157.708 169.090 C 152.475 171.851, 150.008 176.250, 150.004 182.827 C 150.001 187.379, 149.575 188.579, 147.077 191.077 C 145.100 193.054, 143.148 194, 141.045 194 C 136.208 194, 131.239 196.559, 129.026 200.190 C 126.141 204.921, 126.519 206.172, 129.505 201.778 C 132.004 198.100, 136.454 196.018, 141.846 196.006 C 144.993 195.998, 149.557 193.197, 151.091 190.331 C 152.042 188.553, 153.191 188, 155.935 188 C 161.382 188, 166.168 184.999, 168.750 179.964 C 171.617 174.373, 171.580 172.490, 168.545 169.455 C 165.599 166.508, 162.779 166.413, 157.708 169.090" stroke="none" fill="#060606" fill-rule="evenodd"/></svg>